<?xml version="1.0" standalone="no"?>
<!DOCTYPE svg PUBLIC "-//W3C//DTD SVG 20010904//EN"
 "http://www.w3.org/TR/2001/REC-SVG-20010904/DTD/svg10.dtd">
<svg version="1.0" xmlns="http://www.w3.org/2000/svg"
 width="450.000000pt" height="453.000000pt" viewBox="0 0 450.000000 453.000000"
 preserveAspectRatio="xMidYMid meet">
<metadata>
Created by potrace 1.10, written by Peter Selinger 2001-2011
</metadata>
<g transform="translate(0.000000,453.000000) scale(0.100000,-0.100000)"
fill="#f8f7f8" stroke="none">
<path d="M2005 4120 c-71 -9 -183 -48 -280 -98 -97 -50 -243 -196 -312 -313
-66 -112 -114 -221 -147 -337 -57 -200 -137 -430 -150 -435 -45 -18 -424 74
-472 114 -7 6 -18 8 -24 4 -16 -10 66 -156 123 -221 27 -30 47 -61 44 -68 -5
-11 -76 -56 -206 -128 -30 -17 -131 -160 -131 -185 0 -15 27 -16 101 -4 30 5
84 13 122 16 98 10 99 -7 9 -98 -40 -40 -90 -97 -113 -127 -50 -67 -132 -227
-120 -234 5 -3 35 -1 67 6 68 13 431 17 486 5 28 -6 38 -13 38 -27 0 -11 -4
-20 -9 -20 -5 0 -30 -25 -56 -56 -42 -48 -50 -66 -62 -128 -31 -165 -22 -581
13 -593 20 -7 264 204 264 229 0 4 7 8 16 8 18 0 13 -34 -17 -114 -18 -49 -18
-50 7 -152 51 -206 153 -436 294 -661 35 -56 70 -105 77 -108 8 -3 56 39 116
102 192 199 475 403 726 524 80 38 162 77 181 87 39 19 125 125 204 252 29 47
59 85 65 85 7 0 21 -25 32 -55 10 -30 31 -80 47 -110 23 -47 31 -55 52 -52 32
3 336 151 476 232 229 131 414 277 464 363 45 79 88 205 115 341 28 142 33
125 -81 242 -89 90 -150 125 -296 174 -55 17 -98 37 -98 44 0 13 124 75 252
125 69 27 177 60 296 91 23 6 42 15 42 21 0 34 -259 237 -413 324 -41 23 -48
30 -42 48 18 62 54 262 60 332 3 44 8 97 10 118 3 23 1 37 -6 37 -6 0 -36 -22
-67 -49 -98 -84 -237 -166 -381 -225 -84 -34 -101 -33 -159 9 -61 44 -169 94
-217 102 l-38 6 7 -37 c7 -37 1 -76 -13 -76 -4 0 -16 19 -28 43 -11 23 -40 58
-63 77 -90 74 -139 129 -151 168 -21 72 11 155 76 193 19 12 35 25 35 30 0 12
-116 64 -211 94 -175 55 -416 84 -554 65z m363 -61 c117 -23 277 -71 306 -92
17 -13 17 -15 -8 -44 -30 -35 -56 -102 -56 -142 0 -53 49 -128 131 -203 44
-39 89 -86 100 -105 23 -37 51 -56 72 -48 7 3 24 24 36 45 l22 39 52 -23 c29
-13 82 -42 118 -65 37 -22 78 -41 92 -41 64 0 256 91 394 186 51 35 96 64 99
64 10 0 -7 -140 -32 -260 -13 -63 -24 -126 -24 -141 0 -30 44 -74 115 -114 95
-53 295 -213 295 -235 0 -4 -14 -11 -30 -15 -51 -11 -201 -61 -283 -94 -153
-61 -227 -109 -227 -145 0 -30 50 -64 132 -91 132 -44 176 -71 266 -162 l84
-84 -7 -59 c-19 -164 -92 -362 -162 -440 -55 -62 -204 -174 -342 -257 -159
-97 -480 -255 -510 -251 -21 3 -31 16 -59 83 -64 155 -90 153 -201 -13 -122
-180 -143 -201 -257 -250 -138 -60 -247 -121 -399 -223 -177 -119 -282 -204
-396 -321 -53 -54 -103 -98 -112 -98 -18 0 -158 228 -212 345 -53 115 -106
264 -128 362 -19 83 -20 98 -8 141 21 72 24 108 12 131 -17 32 -52 26 -92 -15
-50 -53 -189 -167 -195 -161 -15 15 -26 168 -21 297 8 197 21 261 63 313 19
23 46 59 60 79 25 36 26 39 10 63 -30 46 -54 50 -313 49 l-241 0 28 56 c34 67
90 141 177 232 72 75 79 104 36 138 -22 17 -36 20 -73 16 -138 -16 -160 -17
-160 -7 0 30 72 99 149 141 103 57 151 99 151 132 0 14 -24 57 -60 104 -51 68
-71 104 -56 104 2 0 23 -7 47 -16 60 -21 197 -52 281 -64 64 -9 72 -8 99 11
34 24 43 40 74 128 l24 66 -6 -106 c-5 -85 -2 -116 12 -160 41 -126 136 -279
174 -279 10 0 24 7 31 15 11 13 7 37 -26 138 -54 170 -53 220 4 347 23 52 59
120 80 150 l37 55 150 7 c83 4 213 15 290 24 179 22 247 21 320 -5 101 -36
187 -105 289 -235 73 -91 90 -104 112 -82 28 29 11 86 -60 196 -42 64 -53 78
-143 173 -47 50 -48 49 22 49 122 0 122 0 165 -44 23 -24 48 -55 55 -69 31
-59 80 -42 72 26 -7 67 -46 134 -115 199 -79 75 -135 148 -152 200 -8 27 -11
67 -7 122 5 75 4 83 -16 102 -47 44 -174 77 -337 87 -85 6 -102 4 -169 -19
-92 -32 -179 -80 -257 -144 -60 -49 -60 -49 -56 -20 8 53 -27 71 -83 42 -27
-14 -25 -10 15 30 68 70 260 158 384 176 78 11 236 2 354 -21z m9 -104 c112
-29 149 -48 136 -73 -4 -9 -8 -53 -8 -97 0 -108 24 -155 138 -269 92 -94 103
-109 136 -197 25 -64 24 -59 6 -59 -8 0 -22 15 -31 33 -9 17 -35 53 -56 80
l-40 47 -101 0 c-56 0 -117 4 -136 10 -19 5 -38 7 -43 4 -5 -3 36 -52 91 -109
99 -102 144 -163 195 -262 26 -52 33 -83 18 -83 -4 0 -32 34 -62 76 -108 151
-258 260 -393 285 -43 8 -85 6 -175 -5 -168 -22 -399 -39 -451 -33 -25 3 -54
1 -65 -5 -45 -20 -184 -282 -194 -364 -6 -52 21 -173 60 -277 17 -43 27 -81
23 -85 -21 -20 -127 162 -163 279 -21 69 -20 118 7 254 5 28 12 101 15 162 6
102 10 120 42 187 19 41 37 88 39 106 7 56 110 173 236 268 82 62 104 53 53
-22 -34 -50 -86 -165 -81 -179 2 -6 17 10 35 35 90 131 260 256 420 309 74 25
214 18 349 -16z"/>
<path d="M3475 3401 c-33 -15 -96 -40 -140 -56 -96 -34 -111 -47 -176 -148
-54 -83 -70 -137 -49 -162 20 -24 38 -18 119 34 42 26 119 65 171 85 52 21
103 45 114 54 51 46 83 173 51 205 -21 21 -19 22 -90 -12z m71 -68 c-32 -101
-37 -107 -123 -138 -102 -36 -166 -68 -230 -116 -56 -42 -73 -48 -73 -24 0 25
77 162 126 223 1 2 50 21 108 42 59 21 125 50 149 63 23 13 46 20 51 16 6 -6
3 -31 -8 -66z"/>
<path d="M3021 3391 c-15 -15 -20 -41 -26 -125 -8 -115 -3 -151 21 -160 19 -7
54 29 100 104 46 73 44 99 -9 155 -49 50 -59 53 -86 26z m105 -93 c3 -11 -5
-31 -20 -51 -15 -19 -36 -53 -49 -77 -34 -64 -52 -65 -42 -4 4 27 9 84 11 127
2 43 7 83 10 89 7 12 81 -57 90 -84z"/>
<path d="M2128 3108 c-46 -49 -158 -230 -158 -255 0 -31 45 -63 91 -63 121 0
289 126 289 216 0 41 -37 86 -93 113 -62 30 -93 27 -129 -11z m147 -46 c22
-15 41 -37 42 -47 5 -35 -59 -108 -126 -144 -67 -35 -172 -54 -185 -32 -4 6
22 55 57 108 35 54 72 111 81 127 16 25 22 28 54 22 20 -3 55 -18 77 -34z"/>
<path d="M3460 3095 c-107 -27 -220 -88 -220 -119 0 -23 31 -42 75 -45 5 -1
-15 -18 -45 -38 -89 -60 -160 -136 -160 -172 0 -40 28 -57 107 -66 57 -6 67
-4 110 21 27 16 102 55 168 89 105 53 122 65 138 98 l17 37 73 0 c123 0 152
43 71 104 -51 39 -180 93 -240 100 -22 3 -64 -1 -94 -9z m151 -35 c83 -26 203
-92 207 -113 3 -15 -7 -17 -78 -17 -87 0 -213 -26 -207 -43 2 -6 21 -11 42
-11 21 -1 40 -5 42 -11 1 -5 -36 -28 -83 -49 -48 -22 -124 -61 -171 -88 -83
-48 -85 -48 -148 -42 -36 4 -73 13 -82 20 -16 12 -13 18 39 69 64 61 172 135
236 161 71 28 52 38 -58 30 -55 -3 -100 -3 -100 2 0 21 218 108 281 111 9 1
45 -8 80 -19z"/>
<path d="M1570 2967 c-54 -42 -64 -114 -27 -187 32 -66 70 -82 177 -77 90 4
133 19 183 65 53 50 27 91 -75 122 -40 12 -106 37 -147 56 -81 37 -89 39 -111
21z m103 -61 c40 -19 105 -44 146 -55 41 -11 76 -23 79 -25 12 -12 -10 -35
-54 -56 -55 -27 -182 -39 -227 -21 -47 18 -74 120 -47 172 14 25 20 25 103
-15z"/>
<path d="M897 2856 c-20 -21 -20 -21 -6 -48 21 -39 117 -111 208 -157 71 -36
91 -38 117 -10 18 20 18 22 -6 91 -34 99 -44 110 -121 119 -170 22 -174 22
-192 5z m88 -21 c39 -8 91 -15 116 -15 l45 0 31 -79 c41 -109 34 -117 -62 -67
-90 47 -209 136 -213 159 -4 21 -4 21 83 2z"/>
<path d="M860 2702 c-45 -21 -112 -67 -121 -84 -8 -15 -7 -24 7 -39 15 -17 32
-19 139 -19 95 0 125 3 135 14 22 28 7 59 -49 98 -53 37 -80 44 -111 30z m105
-58 c30 -20 55 -41 55 -45 0 -5 -61 -9 -135 -9 -74 0 -135 4 -135 9 0 12 120
80 143 81 9 0 42 -16 72 -36z"/>
<path d="M1014 2471 c-108 -54 -157 -88 -242 -173 -80 -81 -94 -108 -67 -138
16 -18 32 -20 159 -20 120 0 146 3 171 19 l30 18 33 -28 c18 -16 43 -29 55
-29 12 0 32 -3 44 -6 27 -7 102 59 140 124 l26 44 -20 26 c-22 30 -52 39 -133
41 -40 1 -51 4 -40 11 8 5 29 10 47 10 46 0 83 20 90 48 7 30 -16 53 -75 76
-71 27 -128 21 -218 -23z m226 -10 c72 -29 64 -61 -16 -61 -22 0 -61 -6 -86
-14 -63 -18 -188 -77 -188 -87 0 -11 -3 -12 77 7 89 21 275 16 298 -7 15 -14
11 -22 -40 -85 -36 -43 -64 -69 -76 -68 -59 2 -77 5 -93 17 -18 13 -18 15 -1
40 17 26 17 27 -1 27 -11 0 -39 -14 -64 -30 -45 -30 -45 -30 -192 -30 -113 0
-148 3 -148 13 0 20 160 172 223 212 138 87 214 103 307 66z"/>
<path d="M2722 2468 c-23 -18 -64 -62 -92 -98 -28 -36 -56 -72 -63 -80 -7 -8
-36 -47 -66 -85 -83 -108 -237 -254 -319 -302 -40 -24 -75 -43 -78 -43 -3 0
25 30 62 68 146 146 284 339 284 396 0 30 -1 30 -28 -20 -91 -164 -268 -364
-429 -485 -52 -39 -92 -73 -89 -76 10 -11 190 70 281 125 117 72 265 220 409
410 99 129 172 202 205 202 17 0 13 -25 -8 -52 -45 -57 -140 -270 -175 -392
-37 -127 -223 -316 -466 -476 -107 -70 -278 -158 -357 -184 -51 -17 -76 -44
-30 -33 12 3 71 15 132 27 279 56 497 170 747 391 109 96 123 92 82 -23 -53
-146 -164 -338 -230 -399 -16 -14 -92 -59 -169 -99 -267 -139 -484 -277 -630
-400 -107 -89 -102 -87 -122 -74 -27 16 -119 197 -152 299 -54 162 -60 195
-45 245 12 41 19 78 45 245 5 33 8 150 7 260 -2 224 4 275 33 275 11 0 19 -7
19 -15 0 -23 27 -73 68 -127 50 -67 62 -63 45 15 -23 102 -15 295 12 304 6 1
18 -17 28 -41 25 -61 76 -117 136 -149 37 -21 55 -25 68 -19 10 6 72 29 138
52 66 23 165 63 220 89 98 47 239 147 229 163 -7 10 -29 -2 -88 -47 -108 -82
-478 -233 -539 -219 -34 7 -99 68 -123 116 -24 48 -44 68 -68 68 -37 0 -49
-36 -54 -164 l-5 -120 -19 40 c-27 51 -47 74 -68 74 -22 0 -45 -27 -55 -65 -5
-16 -7 -118 -6 -225 1 -108 -3 -228 -9 -270 -19 -127 -27 -173 -41 -232 -12
-53 -11 -65 13 -161 42 -166 143 -379 195 -414 30 -20 54 -11 132 55 185 158
359 267 682 432 132 67 176 108 258 245 85 141 153 314 134 343 -28 45 -58 39
-123 -21 -176 -164 -402 -302 -572 -351 -75 -21 -81 -20 -33 7 149 87 337 226
420 312 132 136 164 185 205 310 36 112 80 214 127 293 45 77 51 100 31 120
-20 20 -54 13 -96 -20z"/>
<path d="M3304 2489 c-45 -13 -118 -81 -158 -147 -65 -107 -131 -356 -106
-401 19 -36 54 -26 96 27 21 26 50 57 65 70 l28 23 -39 -117 c-43 -126 -80
-284 -80 -337 0 -37 25 -67 55 -67 44 0 379 197 480 281 134 113 160 154 205
326 31 119 29 128 -38 194 -66 64 -113 85 -291 130 -117 30 -163 34 -217 18z
m178 -39 c106 -24 221 -64 261 -89 18 -11 47 -35 66 -55 31 -32 33 -38 28 -83
-3 -26 -20 -93 -37 -148 -31 -96 -35 -102 -104 -169 -83 -81 -285 -216 -435
-292 -58 -30 -109 -54 -112 -54 -45 0 48 365 137 541 19 39 30 71 24 74 -12 7
-167 -146 -205 -203 -46 -70 -57 -57 -38 46 41 225 127 387 227 433 52 24 86
24 188 -1z"/>
<path d="M1185 1957 c-35 -26 -91 -87 -123 -134 -47 -69 -70 -274 -34 -306 29
-27 48 -20 89 28 52 63 90 135 124 236 36 107 38 162 7 183 -28 20 -27 20 -63
-7z m60 -20 c8 -20 -32 -166 -65 -235 -37 -79 -109 -182 -126 -182 -18 0 -18
110 0 202 11 56 21 76 61 125 79 94 119 121 130 90z"/>
</g>
</svg>
